<svg xmlns="http://www.w3.org/2000/svg" viewBox="0 0 100 125">
  <path fill="white" d="M90.91 70.455l-22.5-22.5 10.226-10.227 4.09-4.09 4.09-4.09c4.52-4.52 4.52-11.847 0-16.365-4.52-4.517-11.845-4.517-16.363 0l-4.09 4.09-4.09 4.09-10.228 10.228-22.5-22.5L25.455 5l-4.092 4.09L9.09 21.365 5 25.454l4.09 4.09 5.114 5.114 2.046 2.046 6.136 6.136 2.046 2.045 6.136 6.136 1.023 1.024-10.226 10.23-3.358 3.886c-1.406 1.628-2.48 3.516-3.16 5.556l-3.06 9.182-3.66 10.977 10.976-3.66 9.182-3.06c2.04-.68 3.93-1.753 5.557-3.16l3.888-3.358L47.955 68.41l1.023 1.023 6.136 6.136 2.045 2.045 6.135 6.136 2.046 2.047 5.114 5.113L74.546 95l4.09-4.09L90.91 78.635l4.09-4.09-4.09-4.09zM74.545 17.273c2.26-2.26 5.922-2.26 8.182 0 2.26 2.26 2.26 5.922 0 8.182l-4.09 4.09-8.183-8.18 4.09-4.092zm-8.183 8.18l.17.172 8.012 8.01-10.227 10.23-8.182-8.183 10.227-10.228zM17.273 82.73l4.09-12.273 8.182 8.182-12.273 4.09zm16.363-8.182l-8.182-8.182L35.68 56.137l3.07 3.068 2.044 2.045 3.068 3.068-10.226 10.228zm40.91 12.272l-5.114-5.114 8.182-8.182-2.046-2.046-8.182 8.182-6.136-6.136 4.09-4.09-2.045-2.047-4.09 4.09-6.137-6.135 4.09-4.09-2.044-2.046-4.09 4.09-6.137-6.135 8.182-8.183-2.046-2.045-8.182 8.182-6.136-6.136 4.09-4.09-2.044-2.046-4.09 4.09-6.137-6.135 4.09-4.09-2.045-2.047-4.09 4.09-6.137-6.135 8.182-8.182-2.046-2.046-8.183 8.182-5.114-5.115 12.273-12.272L86.82 74.546 74.545 86.818z"/>
</svg>
